<?xml version="1.0" standalone="no"?>
<!DOCTYPE svg PUBLIC "-//W3C//DTD SVG 20010904//EN"
 "http://www.w3.org/TR/2001/REC-SVG-20010904/DTD/svg10.dtd">
<svg version="1.0" xmlns="http://www.w3.org/2000/svg"
 width="160.000000pt" height="160.000000pt" viewBox="0 0 160.000000 160.000000"
 preserveAspectRatio="xMidYMid meet">
<metadata>
Created by potrace 1.14, written by Peter Selinger 2001-2017
</metadata>
<g transform="translate(0.000000,160.000000) scale(0.100000,-0.100000)"
fill="#000000" stroke="none">
<path d="M609 1580 c-149 -37 -280 -112 -385 -222 -151 -157 -224 -339 -224
-558 0 -219 73 -401 224 -558 262 -274 690 -323 1012 -117 228 146 364 398
364 675 0 377 -248 693 -614 780 -107 26 -272 26 -377 0z m-10 -471 c19 -12
70 -48 112 -80 43 -32 83 -59 88 -59 6 0 56 34 112 75 55 41 111 78 125 81 89
23 178 -69 153 -158 -5 -18 -75 -132 -156 -253 -139 -207 -151 -221 -190 -235
-38 -13 -48 -13 -85 0 -40 14 -52 28 -191 235 -81 121 -151 235 -156 253 -12
40 1 87 31 120 44 46 102 54 157 21z"/>
</g>
</svg>
